<mxfile host="app.diagrams.net" modified="2020-06-15T06:45:24.077Z" agent="5.0 (Windows)" etag="92U-kbIzcBeue0aJ45dA" version="13.2.4" type="github">
  <diagram id="rrQzIkg72jDmBK31Jele" name="Page-1">
    <mxGraphModel dx="1730" dy="912" grid="1" gridSize="10" guides="1" tooltips="1" connect="1" arrows="1" fold="1" page="1" pageScale="1" pageWidth="827" pageHeight="1169" math="0" shadow="0">
      <root>
        <mxCell id="0" />
        <mxCell id="1" parent="0" />
        <mxCell id="k8VjFZwE3S4YL07K_zo7-1" value="&lt;font style=&quot;font-size: 17px&quot;&gt;消费者&lt;br&gt;&lt;/font&gt;" style="rounded=1;whiteSpace=wrap;html=1;strokeColor=#6c8ebf;fillColor=#dae8fc;" parent="1" vertex="1">
          <mxGeometry x="120" y="70" width="110" height="50" as="geometry" />
        </mxCell>
        <mxCell id="k8VjFZwE3S4YL07K_zo7-2" value="&lt;font style=&quot;font-size: 17px&quot;&gt;Line APP&lt;br&gt;&lt;/font&gt;" style="rounded=1;whiteSpace=wrap;html=1;strokeColor=#6c8ebf;fillColor=#dae8fc;" parent="1" vertex="1">
          <mxGeometry x="310" y="70" width="110" height="50" as="geometry" />
        </mxCell>
        <mxCell id="k8VjFZwE3S4YL07K_zo7-3" value="&lt;font style=&quot;font-size: 17px&quot;&gt;商家&lt;br&gt;&lt;/font&gt;" style="rounded=1;whiteSpace=wrap;html=1;strokeColor=#6c8ebf;fillColor=#dae8fc;" parent="1" vertex="1">
          <mxGeometry x="490" y="70" width="110" height="50" as="geometry" />
        </mxCell>
        <mxCell id="k8VjFZwE3S4YL07K_zo7-4" value="POS终端" style="rounded=1;whiteSpace=wrap;html=1;strokeColor=#6c8ebf;fillColor=#dae8fc;" parent="1" vertex="1">
          <mxGeometry x="680" y="70" width="110" height="50" as="geometry" />
        </mxCell>
        <mxCell id="k8VjFZwE3S4YL07K_zo7-5" value="&lt;font style=&quot;font-size: 17px&quot;&gt;收单网关&lt;/font&gt;" style="rounded=1;whiteSpace=wrap;html=1;strokeColor=#6c8ebf;fillColor=#dae8fc;" parent="1" vertex="1">
          <mxGeometry x="870" y="70" width="110" height="50" as="geometry" />
        </mxCell>
        <mxCell id="k8VjFZwE3S4YL07K_zo7-6" value="&lt;font style=&quot;font-size: 17px&quot;&gt;Line Pay系统&lt;/font&gt;" style="rounded=1;whiteSpace=wrap;html=1;strokeColor=#6c8ebf;fillColor=#dae8fc;" parent="1" vertex="1">
          <mxGeometry x="1060" y="70" width="110" height="50" as="geometry" />
        </mxCell>
        <mxCell id="k8VjFZwE3S4YL07K_zo7-8" value="" style="endArrow=none;dashed=1;html=1;" parent="1" edge="1">
          <mxGeometry width="50" height="50" relative="1" as="geometry">
            <mxPoint x="364" y="1350" as="sourcePoint" />
            <mxPoint x="364" y="120" as="targetPoint" />
          </mxGeometry>
        </mxCell>
        <mxCell id="k8VjFZwE3S4YL07K_zo7-23" value="" style="rounded=0;whiteSpace=wrap;html=1;strokeColor=#82b366;fillColor=#d5e8d4;" parent="1" vertex="1">
          <mxGeometry x="916.6600000000001" y="689" width="20" height="60" as="geometry" />
        </mxCell>
        <mxCell id="k8VjFZwE3S4YL07K_zo7-24" value="" style="endArrow=classic;html=1;fontSize=15;fontColor=#000000;exitX=0.75;exitY=1;exitDx=0;exitDy=0;entryX=0;entryY=0;entryDx=0;entryDy=0;" parent="1" target="k8VjFZwE3S4YL07K_zo7-23" edge="1">
          <mxGeometry width="50" height="50" relative="1" as="geometry">
            <mxPoint x="737.6600000000004" y="689" as="sourcePoint" />
            <mxPoint x="591.6600000000001" y="719" as="targetPoint" />
          </mxGeometry>
        </mxCell>
        <mxCell id="k8VjFZwE3S4YL07K_zo7-25" value="&lt;div style=&quot;font-size: 15px&quot;&gt;&lt;font style=&quot;font-size: 15px&quot;&gt;调用网关统一&lt;/font&gt;&lt;/div&gt;&lt;div style=&quot;font-size: 15px&quot;&gt;&lt;font style=&quot;font-size: 15px&quot;&gt;下单接口&lt;/font&gt;&lt;/div&gt;" style="text;html=1;align=center;verticalAlign=middle;resizable=0;points=[];autosize=1;fontColor=#000000;fontSize=15;" parent="1" vertex="1">
          <mxGeometry x="781.6600000000001" y="640" width="110" height="40" as="geometry" />
        </mxCell>
        <mxCell id="k8VjFZwE3S4YL07K_zo7-27" value="" style="curved=1;endArrow=classic;html=1;fontSize=15;fontColor=#000000;exitX=1;exitY=0;exitDx=0;exitDy=0;entryX=1;entryY=0.5;entryDx=0;entryDy=0;" parent="1" source="k8VjFZwE3S4YL07K_zo7-26" target="k8VjFZwE3S4YL07K_zo7-26" edge="1">
          <mxGeometry width="50" height="50" relative="1" as="geometry">
            <mxPoint x="571.6600000000001" y="899" as="sourcePoint" />
            <mxPoint x="621.6600000000001" y="849" as="targetPoint" />
            <Array as="points">
              <mxPoint x="1011.66" y="729" />
            </Array>
          </mxGeometry>
        </mxCell>
        <mxCell id="k8VjFZwE3S4YL07K_zo7-28" value="&lt;div style=&quot;font-size: 15px&quot;&gt;&lt;font style=&quot;font-size: 15px&quot;&gt;授权认证&lt;/font&gt;&lt;/div&gt;" style="text;html=1;align=center;verticalAlign=middle;resizable=0;points=[];autosize=1;fontColor=#000000;fontSize=15;labelBackgroundColor=#ffffff;" parent="1" vertex="1">
          <mxGeometry x="976.6600000000001" y="719" width="80" height="20" as="geometry" />
        </mxCell>
        <mxCell id="k8VjFZwE3S4YL07K_zo7-29" value="" style="curved=1;endArrow=classic;html=1;fontSize=15;fontColor=#000000;exitX=1;exitY=0.5;exitDx=0;exitDy=0;entryX=1;entryY=1;entryDx=0;entryDy=0;" parent="1" source="k8VjFZwE3S4YL07K_zo7-26" target="k8VjFZwE3S4YL07K_zo7-26" edge="1">
          <mxGeometry width="50" height="50" relative="1" as="geometry">
            <mxPoint x="936.6600000000001" y="689" as="sourcePoint" />
            <mxPoint x="936.6600000000001" y="769" as="targetPoint" />
            <Array as="points">
              <mxPoint x="961.6600000000001" y="789" />
              <mxPoint x="981.6600000000001" y="809" />
              <mxPoint x="961.6600000000001" y="839" />
            </Array>
          </mxGeometry>
        </mxCell>
        <mxCell id="k8VjFZwE3S4YL07K_zo7-30" value="&lt;div style=&quot;font-size: 15px&quot;&gt;&lt;font style=&quot;font-size: 15px&quot;&gt;生成订单&lt;/font&gt;&lt;/div&gt;" style="text;html=1;align=center;verticalAlign=middle;resizable=0;points=[];autosize=1;fontColor=#000000;fontSize=15;labelBackgroundColor=#ffffff;" parent="1" vertex="1">
          <mxGeometry x="971.6600000000001" y="799" width="80" height="20" as="geometry" />
        </mxCell>
        <mxCell id="k8VjFZwE3S4YL07K_zo7-33" value="" style="endArrow=classic;html=1;fontSize=15;fontColor=#000000;exitX=1;exitY=1;exitDx=0;exitDy=0;entryX=0;entryY=0;entryDx=0;entryDy=0;" parent="1" source="k8VjFZwE3S4YL07K_zo7-26" target="k8VjFZwE3S4YL07K_zo7-31" edge="1">
          <mxGeometry width="50" height="50" relative="1" as="geometry">
            <mxPoint x="811.6600000000001" y="909" as="sourcePoint" />
            <mxPoint x="861.6600000000001" y="859" as="targetPoint" />
          </mxGeometry>
        </mxCell>
        <mxCell id="k8VjFZwE3S4YL07K_zo7-34" value="&lt;div style=&quot;font-size: 15px&quot;&gt;&lt;font style=&quot;font-size: 15px&quot;&gt;调用LinePay&lt;/font&gt;&lt;/div&gt;&lt;div style=&quot;font-size: 15px&quot;&gt;&lt;font style=&quot;font-size: 15px&quot;&gt;付款resever API&lt;br&gt;&lt;/font&gt;&lt;/div&gt;" style="text;html=1;align=center;verticalAlign=middle;resizable=0;points=[];autosize=1;fontColor=#000000;fontSize=15;labelBackgroundColor=#ffffff;" parent="1" vertex="1">
          <mxGeometry x="951.6600000000001" y="859" width="120" height="40" as="geometry" />
        </mxCell>
        <mxCell id="k8VjFZwE3S4YL07K_zo7-35" value="" style="curved=1;endArrow=classic;html=1;fontSize=15;fontColor=#000000;exitX=1;exitY=0;exitDx=0;exitDy=0;entryX=1;entryY=0.5;entryDx=0;entryDy=0;" parent="1" source="k8VjFZwE3S4YL07K_zo7-31" target="k8VjFZwE3S4YL07K_zo7-31" edge="1">
          <mxGeometry width="50" height="50" relative="1" as="geometry">
            <mxPoint x="936.6600000000001" y="789" as="sourcePoint" />
            <mxPoint x="936.6600000000001" y="869" as="targetPoint" />
            <Array as="points">
              <mxPoint x="1161.6599999999999" y="859" />
              <mxPoint x="1170" y="900" />
            </Array>
          </mxGeometry>
        </mxCell>
        <mxCell id="k8VjFZwE3S4YL07K_zo7-36" value="验证参数" style="text;html=1;align=center;verticalAlign=middle;resizable=0;points=[];autosize=1;fontColor=#000000;fontSize=15;labelBackgroundColor=#ffffff;" parent="1" vertex="1">
          <mxGeometry x="1169.9999999999998" y="879" width="80" height="20" as="geometry" />
        </mxCell>
        <mxCell id="k8VjFZwE3S4YL07K_zo7-39" value="" style="endArrow=classic;html=1;fontSize=15;fontColor=#000000;exitX=0;exitY=1;exitDx=0;exitDy=0;entryX=1;entryY=0;entryDx=0;entryDy=0;" parent="1" source="k8VjFZwE3S4YL07K_zo7-31" target="k8VjFZwE3S4YL07K_zo7-37" edge="1">
          <mxGeometry width="50" height="50" relative="1" as="geometry">
            <mxPoint x="1106.6599999999999" y="975" as="sourcePoint" />
            <mxPoint x="861.6600000000001" y="995" as="targetPoint" />
          </mxGeometry>
        </mxCell>
        <mxCell id="k8VjFZwE3S4YL07K_zo7-40" value="返回支付结果" style="text;html=1;align=center;verticalAlign=middle;resizable=0;points=[];autosize=1;fontColor=#000000;fontSize=15;labelBackgroundColor=#ffffff;" parent="1" vertex="1">
          <mxGeometry x="961.6600000000001" y="990" width="110" height="20" as="geometry" />
        </mxCell>
        <mxCell id="k8VjFZwE3S4YL07K_zo7-53" value="&lt;div style=&quot;font-size: 15px&quot;&gt;&lt;font style=&quot;font-size: 15px&quot;&gt;选择商品&lt;/font&gt;&lt;/div&gt;" style="text;html=1;align=center;verticalAlign=middle;resizable=0;points=[];autosize=1;fontColor=#000000;fontSize=15;labelBackgroundColor=#ffffff;" parent="1" vertex="1">
          <mxGeometry x="269" y="165" width="80" height="20" as="geometry" />
        </mxCell>
        <mxCell id="dwbs7ZTQUQG-GgSH1edK-3" value="" style="endArrow=none;dashed=1;html=1;" edge="1" parent="1">
          <mxGeometry width="50" height="50" relative="1" as="geometry">
            <mxPoint x="174" y="1350" as="sourcePoint" />
            <mxPoint x="174.29000000000002" y="120" as="targetPoint" />
          </mxGeometry>
        </mxCell>
        <mxCell id="dwbs7ZTQUQG-GgSH1edK-4" value="" style="endArrow=none;dashed=1;html=1;" edge="1" parent="1" source="dwbs7ZTQUQG-GgSH1edK-39">
          <mxGeometry width="50" height="50" relative="1" as="geometry">
            <mxPoint x="547.9251741293533" y="1089.9999999999998" as="sourcePoint" />
            <mxPoint x="546.96" y="120" as="targetPoint" />
          </mxGeometry>
        </mxCell>
        <mxCell id="dwbs7ZTQUQG-GgSH1edK-5" value="" style="endArrow=none;dashed=1;html=1;" edge="1" parent="1" source="dwbs7ZTQUQG-GgSH1edK-66">
          <mxGeometry width="50" height="50" relative="1" as="geometry">
            <mxPoint x="735.4651741293534" y="1109.9999999999998" as="sourcePoint" />
            <mxPoint x="734.5000000000001" y="140" as="targetPoint" />
          </mxGeometry>
        </mxCell>
        <mxCell id="dwbs7ZTQUQG-GgSH1edK-6" value="" style="endArrow=none;dashed=1;html=1;" edge="1" parent="1">
          <mxGeometry width="50" height="50" relative="1" as="geometry">
            <mxPoint x="929" y="1340" as="sourcePoint" />
            <mxPoint x="929.29" y="120" as="targetPoint" />
          </mxGeometry>
        </mxCell>
        <mxCell id="dwbs7ZTQUQG-GgSH1edK-7" value="" style="endArrow=none;dashed=1;html=1;" edge="1" parent="1" source="dwbs7ZTQUQG-GgSH1edK-56">
          <mxGeometry width="50" height="50" relative="1" as="geometry">
            <mxPoint x="1120.2551741293532" y="1089.9999999999998" as="sourcePoint" />
            <mxPoint x="1119.29" y="120" as="targetPoint" />
          </mxGeometry>
        </mxCell>
        <mxCell id="k8VjFZwE3S4YL07K_zo7-48" value="" style="rounded=0;whiteSpace=wrap;html=1;strokeColor=#82b366;fillColor=#d5e8d4;" parent="1" vertex="1">
          <mxGeometry x="165" y="150" width="20" height="50" as="geometry" />
        </mxCell>
        <mxCell id="k8VjFZwE3S4YL07K_zo7-26" value="" style="rounded=0;whiteSpace=wrap;html=1;strokeColor=#82b366;fillColor=#d5e8d4;" parent="1" vertex="1">
          <mxGeometry x="916.6600000000001" y="689" width="20" height="160" as="geometry" />
        </mxCell>
        <mxCell id="k8VjFZwE3S4YL07K_zo7-37" value="" style="rounded=0;whiteSpace=wrap;html=1;strokeColor=#82b366;fillColor=#d5e8d4;" parent="1" vertex="1">
          <mxGeometry x="916.6600000000001" y="979" width="20" height="60" as="geometry" />
        </mxCell>
        <mxCell id="dwbs7ZTQUQG-GgSH1edK-20" value="" style="rounded=0;whiteSpace=wrap;html=1;strokeColor=#82b366;fillColor=#d5e8d4;" vertex="1" parent="1">
          <mxGeometry x="1102.4999999999998" y="1090" width="20" height="50" as="geometry" />
        </mxCell>
        <mxCell id="dwbs7ZTQUQG-GgSH1edK-21" value="" style="endArrow=none;dashed=1;html=1;" edge="1" parent="1" target="dwbs7ZTQUQG-GgSH1edK-20">
          <mxGeometry width="50" height="50" relative="1" as="geometry">
            <mxPoint x="1113" y="1350" as="sourcePoint" />
            <mxPoint x="1111.7899999999997" y="294" as="targetPoint" />
          </mxGeometry>
        </mxCell>
        <mxCell id="dwbs7ZTQUQG-GgSH1edK-24" value="" style="endArrow=none;dashed=1;html=1;" edge="1" parent="1">
          <mxGeometry width="50" height="50" relative="1" as="geometry">
            <mxPoint x="357.4482777777777" y="1263.9999999999998" as="sourcePoint" />
            <mxPoint x="362.49999999999994" y="1269.1045257047901" as="targetPoint" />
          </mxGeometry>
        </mxCell>
        <mxCell id="dwbs7ZTQUQG-GgSH1edK-28" value="" style="rounded=0;whiteSpace=wrap;html=1;strokeColor=#82b366;fillColor=#d5e8d4;" vertex="1" parent="1">
          <mxGeometry x="530.5000000000001" y="1140" width="20" height="50" as="geometry" />
        </mxCell>
        <mxCell id="dwbs7ZTQUQG-GgSH1edK-29" value="" style="endArrow=none;dashed=1;html=1;" edge="1" parent="1" target="dwbs7ZTQUQG-GgSH1edK-28">
          <mxGeometry width="50" height="50" relative="1" as="geometry">
            <mxPoint x="540" y="1350" as="sourcePoint" />
            <mxPoint x="539.4600000000002" y="294" as="targetPoint" />
          </mxGeometry>
        </mxCell>
        <mxCell id="dwbs7ZTQUQG-GgSH1edK-30" value="" style="rounded=0;whiteSpace=wrap;html=1;strokeColor=#82b366;fillColor=#d5e8d4;" vertex="1" parent="1">
          <mxGeometry x="352.49999999999994" y="1190" width="20" height="50" as="geometry" />
        </mxCell>
        <mxCell id="dwbs7ZTQUQG-GgSH1edK-33" value="" style="endArrow=classic;html=1;exitX=0;exitY=1;exitDx=0;exitDy=0;entryX=1;entryY=0;entryDx=0;entryDy=0;" edge="1" parent="1" source="dwbs7ZTQUQG-GgSH1edK-20" target="dwbs7ZTQUQG-GgSH1edK-28">
          <mxGeometry width="50" height="50" relative="1" as="geometry">
            <mxPoint x="642.5000000000001" y="1214" as="sourcePoint" />
            <mxPoint x="692.5000000000001" y="1164" as="targetPoint" />
          </mxGeometry>
        </mxCell>
        <mxCell id="dwbs7ZTQUQG-GgSH1edK-34" value="" style="endArrow=classic;html=1;exitX=0;exitY=1;exitDx=0;exitDy=0;entryX=1;entryY=0;entryDx=0;entryDy=0;" edge="1" parent="1" source="dwbs7ZTQUQG-GgSH1edK-28" target="dwbs7ZTQUQG-GgSH1edK-30">
          <mxGeometry width="50" height="50" relative="1" as="geometry">
            <mxPoint x="392.49999999999994" y="1154" as="sourcePoint" />
            <mxPoint x="442.49999999999994" y="1104" as="targetPoint" />
          </mxGeometry>
        </mxCell>
        <mxCell id="dwbs7ZTQUQG-GgSH1edK-37" value="&lt;div style=&quot;font-size: 15px&quot;&gt;&lt;font style=&quot;font-size: 15px&quot;&gt;返回支付结果&lt;/font&gt;&lt;/div&gt;" style="text;html=1;align=center;verticalAlign=middle;resizable=0;points=[];autosize=1;fontColor=#000000;fontSize=15;labelBackgroundColor=#ffffff;" vertex="1" parent="1">
          <mxGeometry x="772.5000000000001" y="1155" width="110" height="20" as="geometry" />
        </mxCell>
        <mxCell id="dwbs7ZTQUQG-GgSH1edK-38" value="&lt;div style=&quot;font-size: 15px&quot;&gt;&lt;font style=&quot;font-size: 15px&quot;&gt;展示支付结果&lt;/font&gt;&lt;/div&gt;" style="text;html=1;align=center;verticalAlign=middle;resizable=0;points=[];autosize=1;fontColor=#000000;fontSize=15;labelBackgroundColor=#ffffff;" vertex="1" parent="1">
          <mxGeometry x="402.49999999999994" y="1205" width="110" height="20" as="geometry" />
        </mxCell>
        <mxCell id="dwbs7ZTQUQG-GgSH1edK-39" value="" style="rounded=0;whiteSpace=wrap;html=1;strokeColor=#82b366;fillColor=#d5e8d4;" vertex="1" parent="1">
          <mxGeometry x="537" y="200" width="20" height="80" as="geometry" />
        </mxCell>
        <mxCell id="dwbs7ZTQUQG-GgSH1edK-40" value="" style="endArrow=none;dashed=1;html=1;" edge="1" parent="1" source="dwbs7ZTQUQG-GgSH1edK-28" target="dwbs7ZTQUQG-GgSH1edK-39">
          <mxGeometry width="50" height="50" relative="1" as="geometry">
            <mxPoint x="553.1866606660665" y="1206" as="sourcePoint" />
            <mxPoint x="546.96" y="120" as="targetPoint" />
          </mxGeometry>
        </mxCell>
        <mxCell id="dwbs7ZTQUQG-GgSH1edK-41" value="" style="endArrow=classic;html=1;exitX=1;exitY=1;exitDx=0;exitDy=0;entryX=0;entryY=0;entryDx=0;entryDy=0;" edge="1" parent="1" source="k8VjFZwE3S4YL07K_zo7-48" target="dwbs7ZTQUQG-GgSH1edK-39">
          <mxGeometry width="50" height="50" relative="1" as="geometry">
            <mxPoint x="220" y="250" as="sourcePoint" />
            <mxPoint x="270" y="200" as="targetPoint" />
          </mxGeometry>
        </mxCell>
        <mxCell id="dwbs7ZTQUQG-GgSH1edK-42" value="" style="curved=1;endArrow=classic;html=1;fontSize=15;fontColor=#000000;exitX=1;exitY=0;exitDx=0;exitDy=0;entryX=1;entryY=0.5;entryDx=0;entryDy=0;" edge="1" parent="1" source="dwbs7ZTQUQG-GgSH1edK-39" target="dwbs7ZTQUQG-GgSH1edK-39">
          <mxGeometry width="50" height="50" relative="1" as="geometry">
            <mxPoint x="751.3299999999999" y="550" as="sourcePoint" />
            <mxPoint x="751.3299999999999" y="613" as="targetPoint" />
            <Array as="points">
              <mxPoint x="610" y="220" />
              <mxPoint x="580" y="238" />
            </Array>
          </mxGeometry>
        </mxCell>
        <mxCell id="dwbs7ZTQUQG-GgSH1edK-43" value="&lt;div&gt;确定商品信息&lt;/div&gt;&lt;div&gt;订单金额&lt;br&gt;&lt;/div&gt;" style="text;html=1;align=center;verticalAlign=middle;resizable=0;points=[];autosize=1;fontColor=#000000;fontSize=15;labelBackgroundColor=#ffffff;" vertex="1" parent="1">
          <mxGeometry x="609.9999999999999" y="210" width="110" height="40" as="geometry" />
        </mxCell>
        <mxCell id="dwbs7ZTQUQG-GgSH1edK-44" value="" style="rounded=0;whiteSpace=wrap;html=1;strokeColor=#82b366;fillColor=#d5e8d4;" vertex="1" parent="1">
          <mxGeometry x="165" y="280" width="20" height="50" as="geometry" />
        </mxCell>
        <mxCell id="dwbs7ZTQUQG-GgSH1edK-45" value="" style="endArrow=classic;html=1;exitX=0;exitY=1;exitDx=0;exitDy=0;entryX=1;entryY=0;entryDx=0;entryDy=0;" edge="1" parent="1" source="dwbs7ZTQUQG-GgSH1edK-39" target="dwbs7ZTQUQG-GgSH1edK-44">
          <mxGeometry width="50" height="50" relative="1" as="geometry">
            <mxPoint x="340" y="320" as="sourcePoint" />
            <mxPoint x="390" y="270" as="targetPoint" />
          </mxGeometry>
        </mxCell>
        <mxCell id="dwbs7ZTQUQG-GgSH1edK-46" value="&lt;div style=&quot;font-size: 15px&quot;&gt;&lt;font style=&quot;font-size: 15px&quot;&gt;商家通知付款金额&lt;/font&gt;&lt;/div&gt;" style="text;html=1;align=center;verticalAlign=middle;resizable=0;points=[];autosize=1;fontColor=#000000;fontSize=15;labelBackgroundColor=#ffffff;" vertex="1" parent="1">
          <mxGeometry x="239" y="290" width="140" height="20" as="geometry" />
        </mxCell>
        <mxCell id="dwbs7ZTQUQG-GgSH1edK-47" value="" style="rounded=0;whiteSpace=wrap;html=1;strokeColor=#82b366;fillColor=#d5e8d4;" vertex="1" parent="1">
          <mxGeometry x="165" y="380" width="20" height="50" as="geometry" />
        </mxCell>
        <mxCell id="dwbs7ZTQUQG-GgSH1edK-48" value="" style="rounded=0;whiteSpace=wrap;html=1;strokeColor=#82b366;fillColor=#d5e8d4;" vertex="1" parent="1">
          <mxGeometry x="350.33" y="430" width="20" height="160" as="geometry" />
        </mxCell>
        <mxCell id="dwbs7ZTQUQG-GgSH1edK-50" value="" style="endArrow=classic;html=1;entryX=0;entryY=0;entryDx=0;entryDy=0;exitX=0.75;exitY=1;exitDx=0;exitDy=0;" edge="1" parent="1" source="dwbs7ZTQUQG-GgSH1edK-47" target="dwbs7ZTQUQG-GgSH1edK-48">
          <mxGeometry width="50" height="50" relative="1" as="geometry">
            <mxPoint x="190" y="430" as="sourcePoint" />
            <mxPoint x="120" y="370" as="targetPoint" />
          </mxGeometry>
        </mxCell>
        <mxCell id="dwbs7ZTQUQG-GgSH1edK-53" value="打开应用，选择支付通道" style="text;html=1;align=center;verticalAlign=middle;resizable=0;points=[];autosize=1;fontColor=#000000;fontSize=15;labelBackgroundColor=#ffffff;" vertex="1" parent="1">
          <mxGeometry x="180.32999999999998" y="395" width="180" height="20" as="geometry" />
        </mxCell>
        <mxCell id="dwbs7ZTQUQG-GgSH1edK-54" value="" style="rounded=0;whiteSpace=wrap;html=1;strokeColor=#82b366;fillColor=#d5e8d4;" vertex="1" parent="1">
          <mxGeometry x="537" y="200" width="20" height="80" as="geometry" />
        </mxCell>
        <mxCell id="dwbs7ZTQUQG-GgSH1edK-55" value="" style="rounded=0;whiteSpace=wrap;html=1;strokeColor=#82b366;fillColor=#d5e8d4;" vertex="1" parent="1">
          <mxGeometry x="350.33" y="430" width="20" height="210" as="geometry" />
        </mxCell>
        <mxCell id="dwbs7ZTQUQG-GgSH1edK-56" value="" style="rounded=0;whiteSpace=wrap;html=1;strokeColor=#82b366;fillColor=#d5e8d4;" vertex="1" parent="1">
          <mxGeometry x="1105" y="470" width="20" height="70" as="geometry" />
        </mxCell>
        <mxCell id="dwbs7ZTQUQG-GgSH1edK-57" value="" style="endArrow=none;dashed=1;html=1;" edge="1" parent="1" source="dwbs7ZTQUQG-GgSH1edK-20" target="dwbs7ZTQUQG-GgSH1edK-56">
          <mxGeometry width="50" height="50" relative="1" as="geometry">
            <mxPoint x="1115.3921079046422" y="1689" as="sourcePoint" />
            <mxPoint x="1119.29" y="120" as="targetPoint" />
          </mxGeometry>
        </mxCell>
        <mxCell id="dwbs7ZTQUQG-GgSH1edK-58" value="" style="endArrow=classic;html=1;entryX=0;entryY=0;entryDx=0;entryDy=0;exitX=1.184;exitY=0.2;exitDx=0;exitDy=0;exitPerimeter=0;" edge="1" parent="1" source="dwbs7ZTQUQG-GgSH1edK-55" target="dwbs7ZTQUQG-GgSH1edK-56">
          <mxGeometry width="50" height="50" relative="1" as="geometry">
            <mxPoint x="440" y="470" as="sourcePoint" />
            <mxPoint x="1100" y="470" as="targetPoint" />
          </mxGeometry>
        </mxCell>
        <mxCell id="dwbs7ZTQUQG-GgSH1edK-59" value="请求二维码" style="text;html=1;align=center;verticalAlign=middle;resizable=0;points=[];autosize=1;fontColor=#000000;fontSize=15;labelBackgroundColor=#ffffff;" vertex="1" parent="1">
          <mxGeometry x="595.3299999999999" y="440" width="90" height="20" as="geometry" />
        </mxCell>
        <mxCell id="dwbs7ZTQUQG-GgSH1edK-62" value="" style="endArrow=classic;html=1;exitX=0;exitY=1;exitDx=0;exitDy=0;entryX=1;entryY=0.5;entryDx=0;entryDy=0;" edge="1" parent="1" source="dwbs7ZTQUQG-GgSH1edK-56" target="dwbs7ZTQUQG-GgSH1edK-55">
          <mxGeometry width="50" height="50" relative="1" as="geometry">
            <mxPoint x="520" y="590" as="sourcePoint" />
            <mxPoint x="570" y="540" as="targetPoint" />
          </mxGeometry>
        </mxCell>
        <mxCell id="dwbs7ZTQUQG-GgSH1edK-63" value="返回二维码" style="text;html=1;align=center;verticalAlign=middle;resizable=0;points=[];autosize=1;fontColor=#000000;fontSize=15;labelBackgroundColor=#ffffff;" vertex="1" parent="1">
          <mxGeometry x="589.9999999999999" y="520" width="90" height="20" as="geometry" />
        </mxCell>
        <mxCell id="dwbs7ZTQUQG-GgSH1edK-64" value="" style="curved=1;endArrow=classic;html=1;exitX=1;exitY=0.5;exitDx=0;exitDy=0;entryX=1;entryY=0.857;entryDx=0;entryDy=0;entryPerimeter=0;" edge="1" parent="1" source="dwbs7ZTQUQG-GgSH1edK-55" target="dwbs7ZTQUQG-GgSH1edK-55">
          <mxGeometry width="50" height="50" relative="1" as="geometry">
            <mxPoint x="570" y="610" as="sourcePoint" />
            <mxPoint x="620" y="560" as="targetPoint" />
            <Array as="points">
              <mxPoint x="460" y="570" />
            </Array>
          </mxGeometry>
        </mxCell>
        <mxCell id="dwbs7ZTQUQG-GgSH1edK-65" value="展示二维码" style="text;html=1;align=center;verticalAlign=middle;resizable=0;points=[];autosize=1;fontColor=#000000;fontSize=15;labelBackgroundColor=#ffffff;" vertex="1" parent="1">
          <mxGeometry x="413.99999999999994" y="564" width="90" height="20" as="geometry" />
        </mxCell>
        <mxCell id="dwbs7ZTQUQG-GgSH1edK-66" value="" style="rounded=0;whiteSpace=wrap;html=1;strokeColor=#82b366;fillColor=#d5e8d4;" vertex="1" parent="1">
          <mxGeometry x="725" y="640" width="20" height="50" as="geometry" />
        </mxCell>
        <mxCell id="dwbs7ZTQUQG-GgSH1edK-67" value="" style="endArrow=none;dashed=1;html=1;" edge="1" parent="1">
          <mxGeometry width="50" height="50" relative="1" as="geometry">
            <mxPoint x="735" y="1340" as="sourcePoint" />
            <mxPoint x="735.0261333780536" y="699" as="targetPoint" />
          </mxGeometry>
        </mxCell>
        <mxCell id="dwbs7ZTQUQG-GgSH1edK-68" value="" style="endArrow=classic;html=1;entryX=1;entryY=1;entryDx=0;entryDy=0;exitX=0;exitY=0;exitDx=0;exitDy=0;" edge="1" parent="1" source="dwbs7ZTQUQG-GgSH1edK-66" target="dwbs7ZTQUQG-GgSH1edK-55">
          <mxGeometry width="50" height="50" relative="1" as="geometry">
            <mxPoint x="720" y="640" as="sourcePoint" />
            <mxPoint x="560" y="610" as="targetPoint" />
          </mxGeometry>
        </mxCell>
        <mxCell id="dwbs7ZTQUQG-GgSH1edK-69" value="扫描二维码" style="text;html=1;align=center;verticalAlign=middle;resizable=0;points=[];autosize=1;fontColor=#000000;fontSize=15;labelBackgroundColor=#ffffff;" vertex="1" parent="1">
          <mxGeometry x="579.9999999999999" y="610" width="90" height="20" as="geometry" />
        </mxCell>
        <mxCell id="k8VjFZwE3S4YL07K_zo7-31" value="" style="rounded=0;whiteSpace=wrap;html=1;strokeColor=#82b366;fillColor=#d5e8d4;" parent="1" vertex="1">
          <mxGeometry x="1106.66" y="849" width="20" height="131" as="geometry" />
        </mxCell>
        <mxCell id="dwbs7ZTQUQG-GgSH1edK-70" value="" style="curved=1;endArrow=classic;html=1;fontSize=15;fontColor=#000000;entryX=0.75;entryY=1;entryDx=0;entryDy=0;exitX=1;exitY=0.5;exitDx=0;exitDy=0;" edge="1" parent="1" source="k8VjFZwE3S4YL07K_zo7-31" target="k8VjFZwE3S4YL07K_zo7-31">
          <mxGeometry width="50" height="50" relative="1" as="geometry">
            <mxPoint x="1270" y="914" as="sourcePoint" />
            <mxPoint x="1126.6599999999999" y="914.4999999999998" as="targetPoint" />
            <Array as="points">
              <mxPoint x="1162" y="930" />
              <mxPoint x="1162" y="960" />
            </Array>
          </mxGeometry>
        </mxCell>
        <mxCell id="dwbs7ZTQUQG-GgSH1edK-71" value="扣款" style="text;html=1;align=center;verticalAlign=middle;resizable=0;points=[];autosize=1;fontColor=#000000;fontSize=15;labelBackgroundColor=#ffffff;" vertex="1" parent="1">
          <mxGeometry x="1169.9999999999998" y="930" width="50" height="20" as="geometry" />
        </mxCell>
      </root>
    </mxGraphModel>
  </diagram>
</mxfile>
